<mxfile host="app.diagrams.net" modified="2024-07-09T03:15:04.051Z" agent="Mozilla/5.0 (Windows NT 10.0; Win64; x64) AppleWebKit/537.36 (KHTML, like Gecko) Chrome/117.0.0.0 Safari/537.36" etag="_VQ456d2ApfkF8o67ZII" version="24.6.4" type="github" pages="2">
  <diagram id="C5RBs43oDa-KdzZeNtuy" name="Page-1">
    <mxGraphModel dx="1434" dy="758" grid="1" gridSize="10" guides="1" tooltips="1" connect="1" arrows="1" fold="1" page="1" pageScale="1" pageWidth="827" pageHeight="1169" math="0" shadow="0">
      <root>
        <mxCell id="WIyWlLk6GJQsqaUBKTNV-0" />
        <mxCell id="WIyWlLk6GJQsqaUBKTNV-1" parent="WIyWlLk6GJQsqaUBKTNV-0" />
        <mxCell id="Pri2jvrcM6wADI4ti65S-5" value="" style="edgeStyle=orthogonalEdgeStyle;rounded=0;orthogonalLoop=1;jettySize=auto;html=1;" edge="1" parent="WIyWlLk6GJQsqaUBKTNV-1" source="Pri2jvrcM6wADI4ti65S-0">
          <mxGeometry relative="1" as="geometry">
            <mxPoint x="65" y="240" as="targetPoint" />
          </mxGeometry>
        </mxCell>
        <mxCell id="Pri2jvrcM6wADI4ti65S-0" value="Actor" style="shape=umlActor;verticalLabelPosition=bottom;verticalAlign=top;html=1;outlineConnect=0;" vertex="1" parent="WIyWlLk6GJQsqaUBKTNV-1">
          <mxGeometry x="50" y="100" width="30" height="60" as="geometry" />
        </mxCell>
        <mxCell id="Pri2jvrcM6wADI4ti65S-13" value="" style="edgeStyle=orthogonalEdgeStyle;rounded=0;orthogonalLoop=1;jettySize=auto;html=1;" edge="1" parent="WIyWlLk6GJQsqaUBKTNV-1" target="Pri2jvrcM6wADI4ti65S-12">
          <mxGeometry relative="1" as="geometry">
            <mxPoint x="125" y="270" as="sourcePoint" />
          </mxGeometry>
        </mxCell>
        <mxCell id="Pri2jvrcM6wADI4ti65S-15" value="" style="edgeStyle=orthogonalEdgeStyle;rounded=0;orthogonalLoop=1;jettySize=auto;html=1;" edge="1" parent="WIyWlLk6GJQsqaUBKTNV-1" source="Pri2jvrcM6wADI4ti65S-6" target="Pri2jvrcM6wADI4ti65S-14">
          <mxGeometry relative="1" as="geometry" />
        </mxCell>
        <mxCell id="Pri2jvrcM6wADI4ti65S-6" value="PMS.MQ" style="rounded=1;whiteSpace=wrap;html=1;verticalAlign=top;" vertex="1" parent="WIyWlLk6GJQsqaUBKTNV-1">
          <mxGeometry x="410" y="120" width="120" height="60" as="geometry" />
        </mxCell>
        <mxCell id="Pri2jvrcM6wADI4ti65S-11" value="" style="edgeStyle=orthogonalEdgeStyle;rounded=0;orthogonalLoop=1;jettySize=auto;html=1;" edge="1" parent="WIyWlLk6GJQsqaUBKTNV-1" source="Pri2jvrcM6wADI4ti65S-8">
          <mxGeometry relative="1" as="geometry">
            <mxPoint x="65" y="360" as="targetPoint" />
          </mxGeometry>
        </mxCell>
        <mxCell id="Pri2jvrcM6wADI4ti65S-8" value="xcx下单" style="rounded=1;whiteSpace=wrap;html=1;verticalAlign=top;" vertex="1" parent="WIyWlLk6GJQsqaUBKTNV-1">
          <mxGeometry x="5" y="240" width="120" height="60" as="geometry" />
        </mxCell>
        <mxCell id="Pri2jvrcM6wADI4ti65S-12" value="数据库" style="whiteSpace=wrap;html=1;verticalAlign=top;rounded=1;" vertex="1" parent="WIyWlLk6GJQsqaUBKTNV-1">
          <mxGeometry x="205" y="240" width="120" height="60" as="geometry" />
        </mxCell>
        <mxCell id="Pri2jvrcM6wADI4ti65S-17" value="" style="edgeStyle=orthogonalEdgeStyle;rounded=0;orthogonalLoop=1;jettySize=auto;html=1;" edge="1" parent="WIyWlLk6GJQsqaUBKTNV-1" source="Pri2jvrcM6wADI4ti65S-14" target="Pri2jvrcM6wADI4ti65S-16">
          <mxGeometry relative="1" as="geometry" />
        </mxCell>
        <mxCell id="Pri2jvrcM6wADI4ti65S-14" value="酒店基础服务" style="rounded=1;whiteSpace=wrap;html=1;verticalAlign=top;" vertex="1" parent="WIyWlLk6GJQsqaUBKTNV-1">
          <mxGeometry x="410" y="260" width="120" height="60" as="geometry" />
        </mxCell>
        <mxCell id="Pri2jvrcM6wADI4ti65S-40" style="edgeStyle=orthogonalEdgeStyle;rounded=0;orthogonalLoop=1;jettySize=auto;html=1;" edge="1" parent="WIyWlLk6GJQsqaUBKTNV-1" source="Pri2jvrcM6wADI4ti65S-16" target="Pri2jvrcM6wADI4ti65S-12">
          <mxGeometry relative="1" as="geometry" />
        </mxCell>
        <mxCell id="Pri2jvrcM6wADI4ti65S-16" value="消费MQ" style="whiteSpace=wrap;html=1;verticalAlign=top;rounded=1;" vertex="1" parent="WIyWlLk6GJQsqaUBKTNV-1">
          <mxGeometry x="410" y="400" width="120" height="60" as="geometry" />
        </mxCell>
        <mxCell id="Pri2jvrcM6wADI4ti65S-18" value="业务核心流程" style="text;html=1;align=center;verticalAlign=middle;resizable=0;points=[];autosize=1;strokeColor=none;fillColor=none;" vertex="1" parent="WIyWlLk6GJQsqaUBKTNV-1">
          <mxGeometry y="18" width="100" height="30" as="geometry" />
        </mxCell>
        <mxCell id="Pri2jvrcM6wADI4ti65S-43" value="" style="edgeStyle=orthogonalEdgeStyle;rounded=0;orthogonalLoop=1;jettySize=auto;html=1;" edge="1" parent="WIyWlLk6GJQsqaUBKTNV-1" source="Pri2jvrcM6wADI4ti65S-41" target="Pri2jvrcM6wADI4ti65S-42">
          <mxGeometry relative="1" as="geometry" />
        </mxCell>
        <mxCell id="Pri2jvrcM6wADI4ti65S-41" value="小付" style="rounded=1;whiteSpace=wrap;html=1;verticalAlign=top;" vertex="1" parent="WIyWlLk6GJQsqaUBKTNV-1">
          <mxGeometry x="5" y="360" width="120" height="60" as="geometry" />
        </mxCell>
        <mxCell id="Pri2jvrcM6wADI4ti65S-52" value="" style="edgeStyle=orthogonalEdgeStyle;rounded=0;orthogonalLoop=1;jettySize=auto;html=1;dashed=1;dashPattern=8 8;" edge="1" parent="WIyWlLk6GJQsqaUBKTNV-1" source="Pri2jvrcM6wADI4ti65S-42" target="Pri2jvrcM6wADI4ti65S-46">
          <mxGeometry relative="1" as="geometry" />
        </mxCell>
        <mxCell id="Pri2jvrcM6wADI4ti65S-42" value="支付服务" style="whiteSpace=wrap;html=1;verticalAlign=top;rounded=1;" vertex="1" parent="WIyWlLk6GJQsqaUBKTNV-1">
          <mxGeometry x="5" y="480" width="120" height="60" as="geometry" />
        </mxCell>
        <mxCell id="Pri2jvrcM6wADI4ti65S-47" value="" style="edgeStyle=orthogonalEdgeStyle;rounded=0;orthogonalLoop=1;jettySize=auto;html=1;dashed=1;" edge="1" parent="WIyWlLk6GJQsqaUBKTNV-1" target="Pri2jvrcM6wADI4ti65S-46">
          <mxGeometry relative="1" as="geometry">
            <mxPoint x="65" y="650" as="sourcePoint" />
          </mxGeometry>
        </mxCell>
        <mxCell id="Pri2jvrcM6wADI4ti65S-46" value="下单服务" style="whiteSpace=wrap;html=1;verticalAlign=top;rounded=1;" vertex="1" parent="WIyWlLk6GJQsqaUBKTNV-1">
          <mxGeometry x="5" y="610" width="120" height="60" as="geometry" />
        </mxCell>
        <mxCell id="Pri2jvrcM6wADI4ti65S-49" value="查询" style="text;html=1;align=center;verticalAlign=middle;resizable=0;points=[];autosize=1;strokeColor=none;fillColor=none;" vertex="1" parent="WIyWlLk6GJQsqaUBKTNV-1">
          <mxGeometry x="135" y="238" width="50" height="30" as="geometry" />
        </mxCell>
        <mxCell id="Pri2jvrcM6wADI4ti65S-50" value="落库" style="text;html=1;align=center;verticalAlign=middle;resizable=0;points=[];autosize=1;strokeColor=none;fillColor=none;" vertex="1" parent="WIyWlLk6GJQsqaUBKTNV-1">
          <mxGeometry x="305" y="398" width="50" height="30" as="geometry" />
        </mxCell>
        <mxCell id="Pri2jvrcM6wADI4ti65S-51" value="支付" style="text;html=1;align=center;verticalAlign=middle;resizable=0;points=[];autosize=1;strokeColor=none;fillColor=none;" vertex="1" parent="WIyWlLk6GJQsqaUBKTNV-1">
          <mxGeometry x="55" y="308" width="50" height="30" as="geometry" />
        </mxCell>
        <mxCell id="Pri2jvrcM6wADI4ti65S-53" value="MQ" style="text;html=1;align=center;verticalAlign=middle;resizable=0;points=[];autosize=1;strokeColor=none;fillColor=none;" vertex="1" parent="WIyWlLk6GJQsqaUBKTNV-1">
          <mxGeometry x="60" y="558" width="40" height="30" as="geometry" />
        </mxCell>
      </root>
    </mxGraphModel>
  </diagram>
  <diagram id="Z1S4hJpbNXhGkEyE1FPP" name="第 2 页">
    <mxGraphModel dx="1434" dy="758" grid="1" gridSize="10" guides="1" tooltips="1" connect="1" arrows="1" fold="1" page="1" pageScale="1" pageWidth="827" pageHeight="1169" math="0" shadow="0">
      <root>
        <mxCell id="0" />
        <mxCell id="1" parent="0" />
        <mxCell id="ToEeY1vGJqn2u5GMA5Cf-4" value="" style="edgeStyle=orthogonalEdgeStyle;rounded=0;orthogonalLoop=1;jettySize=auto;html=1;" edge="1" parent="1" source="ToEeY1vGJqn2u5GMA5Cf-1" target="ToEeY1vGJqn2u5GMA5Cf-3">
          <mxGeometry relative="1" as="geometry" />
        </mxCell>
        <mxCell id="ToEeY1vGJqn2u5GMA5Cf-1" value="Actor" style="shape=umlActor;verticalLabelPosition=bottom;verticalAlign=top;html=1;outlineConnect=0;" vertex="1" parent="1">
          <mxGeometry x="60" y="140" width="30" height="60" as="geometry" />
        </mxCell>
        <mxCell id="ToEeY1vGJqn2u5GMA5Cf-6" value="" style="edgeStyle=orthogonalEdgeStyle;rounded=0;orthogonalLoop=1;jettySize=auto;html=1;" edge="1" parent="1" source="ToEeY1vGJqn2u5GMA5Cf-3" target="ToEeY1vGJqn2u5GMA5Cf-5">
          <mxGeometry relative="1" as="geometry" />
        </mxCell>
        <mxCell id="ToEeY1vGJqn2u5GMA5Cf-24" value="" style="edgeStyle=orthogonalEdgeStyle;rounded=0;orthogonalLoop=1;jettySize=auto;html=1;" edge="1" parent="1" source="ToEeY1vGJqn2u5GMA5Cf-3" target="ToEeY1vGJqn2u5GMA5Cf-23">
          <mxGeometry relative="1" as="geometry" />
        </mxCell>
        <mxCell id="ToEeY1vGJqn2u5GMA5Cf-3" value="产品查询" style="rounded=1;whiteSpace=wrap;html=1;verticalAlign=top;" vertex="1" parent="1">
          <mxGeometry x="150" y="150" width="80" height="40" as="geometry" />
        </mxCell>
        <mxCell id="ToEeY1vGJqn2u5GMA5Cf-8" value="" style="edgeStyle=orthogonalEdgeStyle;rounded=0;orthogonalLoop=1;jettySize=auto;html=1;" edge="1" parent="1" source="ToEeY1vGJqn2u5GMA5Cf-5" target="ToEeY1vGJqn2u5GMA5Cf-7">
          <mxGeometry relative="1" as="geometry" />
        </mxCell>
        <mxCell id="ToEeY1vGJqn2u5GMA5Cf-5" value="点击下单" style="rounded=1;whiteSpace=wrap;html=1;verticalAlign=top;" vertex="1" parent="1">
          <mxGeometry x="310" y="150" width="80" height="40" as="geometry" />
        </mxCell>
        <mxCell id="ToEeY1vGJqn2u5GMA5Cf-12" value="" style="edgeStyle=orthogonalEdgeStyle;rounded=0;orthogonalLoop=1;jettySize=auto;html=1;" edge="1" parent="1" source="ToEeY1vGJqn2u5GMA5Cf-7" target="ToEeY1vGJqn2u5GMA5Cf-11">
          <mxGeometry relative="1" as="geometry" />
        </mxCell>
        <mxCell id="ToEeY1vGJqn2u5GMA5Cf-7" value="确认支付" style="rounded=1;whiteSpace=wrap;html=1;verticalAlign=top;" vertex="1" parent="1">
          <mxGeometry x="470" y="150" width="80" height="40" as="geometry" />
        </mxCell>
        <mxCell id="ToEeY1vGJqn2u5GMA5Cf-14" value="" style="edgeStyle=orthogonalEdgeStyle;rounded=0;orthogonalLoop=1;jettySize=auto;html=1;dashed=1;" edge="1" parent="1" source="ToEeY1vGJqn2u5GMA5Cf-11" target="ToEeY1vGJqn2u5GMA5Cf-13">
          <mxGeometry relative="1" as="geometry" />
        </mxCell>
        <mxCell id="ToEeY1vGJqn2u5GMA5Cf-11" value="支付回调" style="rounded=1;whiteSpace=wrap;html=1;verticalAlign=top;" vertex="1" parent="1">
          <mxGeometry x="630" y="150" width="80" height="40" as="geometry" />
        </mxCell>
        <mxCell id="ToEeY1vGJqn2u5GMA5Cf-18" value="" style="edgeStyle=orthogonalEdgeStyle;rounded=0;orthogonalLoop=1;jettySize=auto;html=1;dashed=1;" edge="1" parent="1" source="ToEeY1vGJqn2u5GMA5Cf-13" target="ToEeY1vGJqn2u5GMA5Cf-17">
          <mxGeometry relative="1" as="geometry" />
        </mxCell>
        <mxCell id="ToEeY1vGJqn2u5GMA5Cf-13" value="权益扣减" style="rounded=1;whiteSpace=wrap;html=1;verticalAlign=top;" vertex="1" parent="1">
          <mxGeometry x="630" y="270" width="80" height="40" as="geometry" />
        </mxCell>
        <mxCell id="ToEeY1vGJqn2u5GMA5Cf-22" value="" style="edgeStyle=orthogonalEdgeStyle;rounded=0;orthogonalLoop=1;jettySize=auto;html=1;" edge="1" parent="1" source="ToEeY1vGJqn2u5GMA5Cf-17" target="ToEeY1vGJqn2u5GMA5Cf-21">
          <mxGeometry relative="1" as="geometry" />
        </mxCell>
        <mxCell id="ToEeY1vGJqn2u5GMA5Cf-17" value="订单确认" style="rounded=1;whiteSpace=wrap;html=1;verticalAlign=top;" vertex="1" parent="1">
          <mxGeometry x="470" y="270" width="80" height="40" as="geometry" />
        </mxCell>
        <mxCell id="ToEeY1vGJqn2u5GMA5Cf-21" value="结束" style="ellipse;whiteSpace=wrap;html=1;verticalAlign=top;rounded=1;" vertex="1" parent="1">
          <mxGeometry x="340" y="260" width="60" height="60" as="geometry" />
        </mxCell>
        <mxCell id="ToEeY1vGJqn2u5GMA5Cf-23" value="库存服务" style="rounded=1;whiteSpace=wrap;html=1;verticalAlign=top;" vertex="1" parent="1">
          <mxGeometry x="150" y="370" width="80" height="40" as="geometry" />
        </mxCell>
        <mxCell id="ToEeY1vGJqn2u5GMA5Cf-27" value="" style="edgeStyle=orthogonalEdgeStyle;rounded=0;orthogonalLoop=1;jettySize=auto;html=1;dashed=1;" edge="1" parent="1" source="ToEeY1vGJqn2u5GMA5Cf-25" target="ToEeY1vGJqn2u5GMA5Cf-26">
          <mxGeometry relative="1" as="geometry" />
        </mxCell>
        <mxCell id="ToEeY1vGJqn2u5GMA5Cf-25" value="MQ" style="rounded=1;whiteSpace=wrap;html=1;verticalAlign=top;" vertex="1" parent="1">
          <mxGeometry x="40" y="545" width="80" height="40" as="geometry" />
        </mxCell>
        <mxCell id="ToEeY1vGJqn2u5GMA5Cf-26" value="MQ" style="rounded=1;whiteSpace=wrap;html=1;verticalAlign=top;" vertex="1" parent="1">
          <mxGeometry x="200" y="545" width="80" height="40" as="geometry" />
        </mxCell>
      </root>
    </mxGraphModel>
  </diagram>
</mxfile>
